<svg width="700pt" height="700pt" version="1.1" viewBox="0 0 450 503" xmlns="http://www.w3.org/2000/svg">
  <g transform="matrix(1, 0, 0, 1, -124.631729, -28.609701)">
    <path d="m244.75 532c-26.609 0-47.355-8.0625-61.906-24.125-14.914-16.469-28.648-48.266-9.4062-106.24 16.145-48.629 11.727-53.754-17.047-87.078-2.8945-3.3672-5.957-6.9062-9.1562-10.691-21.965-25.938-28.711-55.535-19-83.363 14.09-40.359 57.977-65.895 95.223-73.309 38.754-7.7109 49.055-23.586 63.312-45.562 13.52-20.836 30.352-46.777 71.02-62.562 44.32-17.203 96.383-14.195 135.86 7.8633 31.496 17.602 52.203 45.641 58.309 78.941 6.7539 36.848-1.1797 63.414-7.5586 84.773-3.3047 11.07-6.1641 20.648-6.1562 29.344 0.011718 10.102 7.1289 23.699 14.668 38.098 9.9102 18.945 21.156 40.426 22.652 65.426 4.3945 73.742-17.258 105.93-85.82 127.52-17.047 5.3594-37.828 3.6016-57.941 1.8828-15.18-1.3008-34.105-2.9102-41.977 0.19141-12.777 5.0273-25.609 13.203-39.195 21.863-20.484 13.047-41.668 26.543-67 32.258-14.105 3.1797-27.07 4.7656-38.875 4.7656zm-56.867-262.55c3.0977 3.6406 6.043 7.0547 8.8359 10.305 34.797 40.312 51.824 64.785 27.289 138.68-9.957 29.961-7.3867 47.371-1.6758 53.676 6.7461 7.4609 25.266 8.6367 49.547 3.1602 16.27-3.668 32.699-14.133 50.098-25.219 15.113-9.6328 30.75-19.59 48.316-26.512 19.48-7.668 43.141-5.6562 66.008-3.6836 13.535 1.1523 30.391 2.5938 37.406 0.37891 42.855-13.5 51.762-21.324 48.641-73.535-0.80469-13.598-8.5078-28.312-16.664-43.887-10.18-19.465-20.715-39.586-20.73-62.777-0.011719-16.504 4.2578-30.801 8.3828-44.625 5.4805-18.34 10.652-35.668 6.1992-59.922-4.082-22.305-19.59-35.172-31.887-42.051-25.574-14.281-61.141-16.141-90.586-4.6992-24.629 9.5547-33.891 23.828-45.613 41.898-16.398 25.262-36.793 56.707-97.609 68.809-25.207 5.0117-49.504 21.98-55.316 38.625-1.2266 3.5625-5.0039 14.395 9.3594 31.375z" style="fill: rgb(0, 115, 255);"></path>
    <path d="m442.9 183.78c0 12.539-10.168 22.707-22.707 22.707-12.543 0-22.711-10.168-22.711-22.707 0-12.543 10.168-22.707 22.711-22.707 12.539 0 22.707 10.164 22.707 22.707" style="fill: rgb(0, 115, 255);"></path>
    <path d="m442.9 329.18c0 15.785-12.797 28.582-28.582 28.582-15.785 0-28.582-12.797-28.582-28.582s12.797-28.582 28.582-28.582c15.785 0 28.582 12.797 28.582 28.582" style="fill: rgb(0, 115, 255);"></path>
    <path d="m350.01 250.84c0 19.477-15.789 35.266-35.266 35.266-19.473 0-35.262-15.789-35.262-35.266 0-19.473 15.789-35.262 35.262-35.262 19.477 0 35.266 15.789 35.266 35.262" style="fill: rgb(0, 115, 255);"></path>
  </g>
</svg>